<svg width="26" height="26" viewBox="0 0 26 26" fill="none" xmlns="http://www.w3.org/2000/svg">
<path d="M12.9266 7.15053C11.7304 7.15053 10.561 7.49566 9.5664 8.14229C8.57178 8.78891 7.79656 9.70798 7.33879 10.7833C6.88101 11.8586 6.76124 13.0418 6.99461 14.1833C7.22798 15.3249 7.80402 16.3734 8.64988 17.1964C9.49573 18.0194 10.5734 18.5799 11.7467 18.8069C12.9199 19.034 14.136 18.9175 15.2412 18.4721C16.3463 18.0267 17.2909 17.2724 17.9555 16.3047C18.6201 15.3369 18.9748 14.1992 18.9748 13.0353C18.9748 11.4745 18.3376 9.97773 17.2033 8.87413C16.0691 7.77053 14.5307 7.15053 12.9266 7.15053ZM12.9266 16.9584C12.1291 16.9584 11.3496 16.7283 10.6865 16.2973C10.0234 15.8662 9.50658 15.2535 9.20139 14.5366C8.89621 13.8197 8.81636 13.0309 8.97194 12.2699C9.12752 11.5089 9.51155 10.8098 10.0755 10.2612C10.6394 9.71251 11.3578 9.33887 12.14 9.18749C12.9221 9.03612 13.7329 9.11381 14.4696 9.41074C15.2064 9.70768 15.8361 10.2105 16.2792 10.8557C16.7223 11.5008 16.9587 12.2593 16.9587 13.0353C16.9554 14.0748 16.5295 15.0708 15.7741 15.8058C15.0186 16.5408 13.995 16.9552 12.9266 16.9584ZM18.4708 0.775391H7.38241C5.51098 0.775391 3.7162 1.49872 2.3929 2.78626C1.0696 4.0738 0.326172 5.82007 0.326172 7.64092V18.4296C0.326172 20.2505 1.0696 21.9967 2.3929 23.2843C3.7162 24.5718 5.51098 25.2952 7.38241 25.2952H18.4708C20.3422 25.2952 22.137 24.5718 23.4603 23.2843C24.7836 21.9967 25.527 20.2505 25.527 18.4296V7.64092C25.527 5.82007 24.7836 4.0738 23.4603 2.78626C22.137 1.49872 20.3422 0.775391 18.4708 0.775391ZM23.511 18.4296C23.511 19.0736 23.3806 19.7113 23.1273 20.3063C22.874 20.9013 22.5028 21.4419 22.0347 21.8972C21.5667 22.3526 21.0111 22.7138 20.3996 22.9603C19.7881 23.2067 19.1327 23.3336 18.4708 23.3336H7.38241C6.72053 23.3336 6.06513 23.2067 5.45362 22.9603C4.84212 22.7138 4.2865 22.3526 3.81847 21.8972C3.35045 21.4419 2.97919 20.9013 2.7259 20.3063C2.47261 19.7113 2.34224 19.0736 2.34224 18.4296V7.64092C2.34224 6.34032 2.87326 5.09298 3.81847 4.17331C4.76369 3.25364 6.04568 2.73697 7.38241 2.73697H18.4708C19.1327 2.73697 19.7881 2.86382 20.3996 3.11026C21.0111 3.35671 21.5667 3.71793 22.0347 4.17331C22.5028 4.62868 22.874 5.16929 23.1273 5.76426C23.3806 6.35924 23.511 6.99693 23.511 7.64092V18.4296ZM20.9909 6.66013C20.9909 6.95111 20.9022 7.23555 20.7361 7.47748C20.5699 7.71942 20.3338 7.90798 20.0575 8.01933C19.7812 8.13068 19.4772 8.15982 19.1838 8.10305C18.8905 8.04629 18.6211 7.90617 18.4096 7.70042C18.1982 7.49467 18.0542 7.23253 17.9958 6.94715C17.9375 6.66177 17.9674 6.36596 18.0819 6.09714C18.1963 5.82831 18.3901 5.59854 18.6388 5.43689C18.8874 5.27523 19.1798 5.18895 19.4788 5.18895C19.8799 5.18895 20.2644 5.34395 20.548 5.61985C20.8316 5.89575 20.9909 6.26995 20.9909 6.66013Z" fill="#F9F9F9"/>
</svg>
