<svg width="25" height="25" viewBox="0 0 25 25" fill="none" xmlns="http://www.w3.org/2000/svg">
<path d="M21.8782 0.775391C22.5778 0.775391 23.2487 1.05331 23.7434 1.548C24.2381 2.04269 24.516 2.71364 24.516 3.41324V21.8782C24.516 22.5778 24.2381 23.2487 23.7434 23.7434C23.2487 24.2381 22.5778 24.516 21.8782 24.516H3.41324C2.71364 24.516 2.04269 24.2381 1.548 23.7434C1.05331 23.2487 0.775391 22.5778 0.775391 21.8782V3.41324C0.775391 2.71364 1.05331 2.04269 1.548 1.548C2.04269 1.05331 2.71364 0.775391 3.41324 0.775391H21.8782ZM21.2187 21.2187V14.2284C21.2187 13.0881 20.7657 11.9944 19.9594 11.1881C19.153 10.3817 18.0594 9.92873 16.919 9.92873C15.7979 9.92873 14.4922 10.6146 13.8591 11.6433V10.1793H10.1793V21.2187H13.8591V14.7164C13.8591 13.7009 14.6769 12.8699 15.6924 12.8699C16.1822 12.8699 16.6518 13.0645 16.9981 13.4108C17.3444 13.757 17.5389 14.2267 17.5389 14.7164V21.2187H21.2187ZM5.89282 8.10861C6.48048 8.10861 7.04408 7.87516 7.45962 7.45962C7.87516 7.04408 8.10861 6.48048 8.10861 5.89282C8.10861 4.66622 7.11942 3.66384 5.89282 3.66384C5.30166 3.66384 4.73471 3.89867 4.31669 4.31669C3.89867 4.73471 3.66384 5.30166 3.66384 5.89282C3.66384 7.11942 4.66622 8.10861 5.89282 8.10861ZM7.72613 21.2187V10.1793H4.0727V21.2187H7.72613Z" fill="#F9F9F9"/>
</svg>
