<svg width="24" height="29" viewBox="0 0 24 29" fill="none" xmlns="http://www.w3.org/2000/svg">
<path d="M11.938 6.71221C10.9375 6.71221 9.95956 7.00358 9.12772 7.54948C8.29587 8.09538 7.64752 8.87129 7.26467 9.7791C6.88181 10.6869 6.78164 11.6858 6.97682 12.6495C7.172 13.6132 7.65376 14.4985 8.36119 15.1933C9.06861 15.8881 9.96993 16.3612 10.9512 16.5529C11.9324 16.7446 12.9495 16.6463 13.8738 16.2702C14.7981 15.8942 15.5881 15.2574 16.1439 14.4404C16.6997 13.6234 16.9964 12.6629 16.9964 11.6803C16.9964 10.3627 16.4634 9.09903 15.5148 8.16733C14.5662 7.23563 13.2796 6.71221 11.938 6.71221ZM11.938 14.6612C11.3377 14.6612 10.7509 14.4863 10.2518 14.1588C9.75272 13.8313 9.36371 13.3657 9.134 12.821C8.90429 12.2763 8.84418 11.677 8.96129 11.0988C9.0784 10.5205 9.36746 9.9894 9.79191 9.57252C10.2164 9.15564 10.7572 8.87174 11.3459 8.75672C11.9346 8.6417 12.5449 8.70074 13.0995 8.92635C13.654 9.15196 14.128 9.53403 14.4615 10.0242C14.795 10.5144 14.973 11.0907 14.973 11.6803C14.973 12.4709 14.6533 13.2291 14.0841 13.7881C13.5149 14.3471 12.7429 14.6612 11.938 14.6612ZM11.938 0.750488C8.98758 0.753776 6.15897 1.90636 4.07271 3.95539C1.98645 6.00441 0.812917 8.78255 0.80957 11.6803C0.80957 15.5803 2.6445 19.7137 6.12087 23.6348C7.68292 25.4066 9.441 27.0021 11.3626 28.3917C11.5327 28.5088 11.7354 28.5716 11.9431 28.5716C12.1507 28.5716 12.3534 28.5088 12.5235 28.3917C14.4416 27.0015 16.1962 25.4061 17.7551 23.6348C21.2264 19.7137 23.0664 15.5803 23.0664 11.6803C23.0631 8.78255 21.8896 6.00441 19.8033 3.95539C17.717 1.90636 14.8884 0.753776 11.938 0.750488ZM11.938 26.3362C9.84762 24.7216 2.83292 18.7909 2.83292 11.6803C2.83292 9.30859 3.7922 7.03401 5.49974 5.35695C7.20727 3.67989 9.52318 2.73773 11.938 2.73773C14.3528 2.73773 16.6687 3.67989 18.3763 5.35695C20.0838 7.03401 21.0431 9.30859 21.0431 11.6803C21.0431 18.7884 14.0284 24.7216 11.938 26.3362Z" fill="#F9F9F9"/>
</svg>
