<svg width="99" height="31" viewBox="0 0 99 31" fill="none" xmlns="http://www.w3.org/2000/svg">
<g clip-path="url(#clip0_170_238)">
<path d="M5.52052 3.75415C5.48877 4.28713 5.45701 4.56993 5.45701 4.84729C5.45172 10.4272 5.43584 16.0071 5.45172 21.5816C5.45172 22.9141 5.52052 24.2519 5.62109 25.5844C5.80105 27.9229 6.74319 28.9726 8.9821 29.4512C9.32614 29.5273 9.67018 29.6252 10.1095 29.734C9.5061 30.1908 0.947434 30.2561 0 29.8101C0.375798 29.6687 0.603394 29.549 0.846869 29.4892C3.12812 28.9345 4.22376 27.7163 4.31374 25.2635C4.49899 20.4015 4.60485 15.5394 4.71071 10.6774C4.75305 8.77934 4.73717 6.87586 4.68424 4.98326C4.61014 2.4054 3.55155 1.13279 1.13269 0.556303C0.952727 0.512795 0.77806 0.431217 0.587515 0.148414C0.83099 0.0994676 1.06917 0.00701279 1.31265 0.00701279C3.53568 0.00157427 5.764 -0.0147413 7.98703 0.0342054C8.36283 0.0450824 8.84978 0.262623 9.09325 0.550865C14.3703 6.84323 19.6156 13.1628 24.8715 19.4715C25.7871 20.57 26.6975 21.6632 27.7879 22.9684C27.8408 22.4735 27.899 22.2125 27.899 21.9514C27.899 16.8501 27.8884 11.7433 27.8779 6.642C27.8779 6.19605 27.862 5.75009 27.8302 5.30957C27.6397 2.49785 26.5652 1.21436 23.8764 0.572619C23.6647 0.523672 23.4636 0.436656 23.2624 0.365955C23.273 0.289816 23.2836 0.219115 23.2942 0.142976H32.8744L32.9379 0.327885C32.705 0.42034 32.4827 0.52911 32.2445 0.599811C30.1856 1.19261 29.1376 2.30751 29.0793 4.50467C28.8835 11.5312 28.7935 18.5632 28.6718 25.5952C28.6506 26.7536 28.6983 27.912 28.6665 29.065C28.6559 29.4185 28.4865 29.7666 28.3913 30.1146C28.0313 29.9297 27.5762 29.8264 27.3274 29.5382C25.7501 27.7271 24.2151 25.8726 22.6749 24.0289C17.2549 17.5517 11.8403 11.0744 6.41503 4.59712C6.20331 4.34695 5.94396 4.14029 5.5417 3.74871L5.52052 3.75415Z" fill="#FFFCFC"/>
<path d="M49.2728 15.1028C49.2728 10.4344 49.2728 5.76593 49.2728 1.09751C49.2728 0.894068 49.2126 0.658505 49.2878 0.49254C49.3731 0.299807 49.5787 0.160611 49.7292 0C49.8746 0.171318 50.0702 0.315868 50.1554 0.513955C50.2256 0.685273 50.1705 0.915482 50.1705 1.11892C50.1705 10.429 50.1705 19.7337 50.1705 29.0438C50.1705 29.2794 50.2206 29.5364 50.1404 29.7344C50.0752 29.9058 49.8595 30.1199 49.7091 30.1146C49.5687 30.1146 49.353 29.8843 49.3029 29.713C49.2277 29.4775 49.2678 29.1937 49.2678 28.9314C49.2678 24.3219 49.2678 19.7123 49.2678 15.0974L49.2728 15.1028Z" fill="#FFFCFC"/>
<path d="M97.9562 29.6204C96.1952 29.3089 94.9886 28.2882 94.3418 26.6874C92.6787 22.5833 91.0373 18.4738 89.4502 14.3429C87.6946 9.77141 86.0043 5.1731 84.2759 0.590905C84.1944 0.370658 83.977 0.198759 83.8194 0C83.6454 0.14504 83.4715 0.279337 83.3085 0.429749C82.3954 1.28925 81.4768 2.14337 80.5854 3.01899C80.4006 3.19626 80.243 3.45411 80.1887 3.69584C80.0637 4.24377 80.1235 4.85079 79.906 5.35574C78.0853 9.64786 76.2536 13.94 74.3567 18.1999C73.0088 21.2242 71.5739 24.2163 70.1391 27.2031C69.5194 28.4923 68.4759 29.3142 67.0356 29.6097C66.8453 29.6473 66.6823 29.7977 66.5029 29.8944C66.5247 29.9696 66.5464 30.0448 66.5682 30.1146H75.1992C75.2155 30.018 75.2372 29.9213 75.2535 29.8246C74.7209 29.6903 74.1883 29.5775 73.661 29.427C72.0794 28.9758 71.5957 28.2936 72.1175 26.7733C72.9816 24.2539 73.9817 21.7775 74.9818 19.3011C75.0742 19.0701 75.5307 18.8499 75.8188 18.8445C79.0799 18.8123 82.341 18.8123 85.6021 18.8499C85.8956 18.8499 86.363 19.1399 86.4554 19.4032C87.3468 21.8205 88.2436 24.2432 88.9991 26.7089C89.5372 28.4655 89.0208 29.1585 87.2055 29.6043C86.9392 29.6688 86.6837 29.8031 86.4282 29.9051C86.45 29.975 86.4717 30.0394 86.4989 30.1093H98.44C98.4617 30.0341 98.4834 29.9589 98.4997 29.8837C98.3204 29.7923 98.1519 29.6473 97.9562 29.6097V29.6204ZM75.5525 17.8668C77.2863 13.7197 78.9766 9.68009 80.667 5.63508C80.7865 5.62971 80.9061 5.62434 81.0203 5.61897C82.6182 9.64249 84.2161 13.666 85.8847 17.8668H75.547H75.5525Z" fill="#FFFCFC"/>
</g>
<defs>
<clipPath id="clip0_170_238">
<rect width="98.5" height="30.1146" fill="white"/>
</clipPath>
</defs>
</svg>
