<svg width="29" height="25" viewBox="0 0 29 25" fill="none" xmlns="http://www.w3.org/2000/svg">
<path d="M3.49499 24.516C2.7197 24.516 2.05578 24.2252 1.50322 23.6436C0.950656 23.0619 0.674844 22.3636 0.675784 21.5485V3.74297C0.675784 2.92689 0.952065 2.22802 1.50463 1.64638C2.05719 1.06473 2.72064 0.774404 3.49499 0.775393H26.0486C26.8239 0.775393 27.4878 1.06622 28.0404 1.64786C28.5929 2.22951 28.8687 2.92788 28.8678 3.74297V21.5485C28.8678 22.3645 28.5915 23.0634 28.039 23.6451C27.4864 24.2267 26.8229 24.517 26.0486 24.516H3.49499ZM14.7718 14.1295L3.49499 6.71055V21.5485H26.0486V6.71055L14.7718 14.1295ZM14.7718 11.1619L26.0486 3.74297H3.49499L14.7718 11.1619ZM3.49499 6.71055V3.74297V21.5485V6.71055Z" fill="#F9F9F9"/>
</svg>
