<svg width="28" height="26" viewBox="0 0 28 26" fill="none" xmlns="http://www.w3.org/2000/svg">
<path fill-rule="evenodd" clip-rule="evenodd" d="M4.26359 1.14844C5.95651 -0.534735 8.74418 -0.235658 10.1617 1.65896L11.9172 4.00149C13.0717 5.54278 12.9688 7.69613 11.5986 9.05797L11.2675 9.38904C11.2302 9.52804 11.2264 9.67394 11.2564 9.8147C11.3441 10.3823 11.8184 11.5841 13.8048 13.5594C15.7913 15.5347 17.0015 16.0077 17.5774 16.0967C17.7223 16.1275 17.8726 16.1232 18.0156 16.0842L18.5831 15.5194C19.8017 14.3092 21.6712 14.0825 23.1791 14.9018L25.8361 16.3485C28.1132 17.5837 28.6877 20.6774 26.8237 22.5317L24.847 24.4959C24.2238 25.1149 23.3864 25.631 22.3654 25.727C19.8476 25.9621 13.9815 25.6616 7.81495 19.5312C2.06017 13.8084 0.955669 8.81732 0.815172 6.35794C0.745619 5.11433 1.33264 4.0627 2.08103 3.31988L4.26359 1.14844ZM8.4924 2.90951C7.78713 1.96777 6.47398 1.89265 5.73394 2.62852L3.54998 4.79856C3.09094 5.25483 2.87115 5.75839 2.89897 6.2397C3.01025 8.19413 3.90053 12.697 9.28669 18.0525C14.9371 23.6696 20.155 23.8379 22.172 23.6487C22.5838 23.6112 22.9927 23.397 23.3753 23.0172L25.3506 21.0516C26.1546 20.2532 25.9779 18.7981 24.8401 18.1805L22.1831 16.7352C21.4487 16.3374 20.589 16.4681 20.0548 16.9995L19.4219 17.6296L18.6846 16.8896C19.4219 17.6296 19.4205 17.631 19.4191 17.631L19.4177 17.6338L19.4136 17.638L19.4038 17.6463L19.383 17.6658C19.3238 17.7198 19.2606 17.7691 19.1938 17.8133C19.0825 17.887 18.935 17.9691 18.75 18.0372C18.3744 18.1777 17.8764 18.2528 17.2616 18.1582C16.0556 17.9732 14.4572 17.1511 12.3331 15.0395C10.2103 12.9279 9.38128 11.3393 9.19488 10.1346C9.0989 9.5198 9.17541 9.0218 9.31729 8.64622C9.39597 8.43515 9.50773 8.23794 9.64836 8.06198L9.69288 8.01329L9.71235 7.99242L9.7207 7.98408L9.72487 7.9799L9.72765 7.97712L10.1283 7.57928C10.7236 6.9853 10.8071 6.00183 10.2465 5.25205L8.4924 2.90951Z" fill="#F9F9F9"/>
</svg>
