<svg width="60" height="60" viewBox="0 0 60 60" fill="none" xmlns="http://www.w3.org/2000/svg">
<g filter="url(#filter0_b_169_223)">
<circle cx="30" cy="30" r="30" fill="white" fill-opacity="0.5"/>
<circle cx="30" cy="30" r="29.625" stroke="white" stroke-opacity="0.1" stroke-width="0.75"/>
</g>
<path d="M40.9095 18.5833C39.4583 17.1248 37.7298 15.9683 35.8247 15.1814C33.9195 14.3945 31.876 13.9929 29.8133 14.0001C21.1706 14.0001 14.1266 21.0088 14.1266 29.6083C14.1266 32.3645 14.8548 35.042 16.2161 37.4045L14 45.5L22.3103 43.3265C24.6055 44.5708 27.1857 45.2323 29.8133 45.2323C38.456 45.2323 45.5 38.2235 45.5 29.624C45.5 25.4503 43.8696 21.5286 40.9095 18.5833ZM29.8133 42.5863C27.4706 42.5863 25.1754 41.9563 23.1651 40.775L22.6902 40.4915L17.7515 41.783L19.0653 36.995L18.7487 36.5068C17.4472 34.4388 16.7561 32.0483 16.7543 29.6083C16.7543 22.4578 22.6111 16.6303 29.7975 16.6303C33.2799 16.6303 36.5565 17.9848 39.01 20.4418C40.2249 21.6451 41.1877 23.0763 41.8425 24.6525C42.4973 26.2287 42.8313 27.9185 42.8249 29.624C42.8565 36.7745 36.9997 42.5863 29.8133 42.5863ZM36.9681 32.8843C36.5724 32.6953 34.6412 31.7503 34.293 31.6085C33.9289 31.4825 33.6756 31.4195 33.4065 31.7975C33.1374 32.1913 32.3935 33.0733 32.1719 33.3253C31.9502 33.593 31.7128 33.6245 31.3171 33.4198C30.9214 33.2308 29.655 32.8055 28.1671 31.4825C26.9957 30.443 26.2201 29.1673 25.9827 28.7736C25.7611 28.3798 25.951 28.1751 26.1568 27.9703C26.3309 27.7971 26.5525 27.5136 26.7425 27.2931C26.9324 27.0726 27.0116 26.8993 27.1382 26.6473C27.2648 26.3796 27.2015 26.1591 27.1065 25.9701C27.0116 25.7811 26.2201 23.8596 25.9035 23.0721C25.5869 22.3161 25.2545 22.4106 25.0171 22.3948H24.2573C23.9882 22.3948 23.5766 22.4893 23.2126 22.8831C22.8643 23.2768 21.8513 24.2218 21.8513 26.1433C21.8513 28.0648 23.2601 29.9233 23.45 30.1753C23.6399 30.443 26.2201 34.3805 30.1457 36.0658C31.0796 36.4753 31.8078 36.7115 32.3776 36.8848C33.3116 37.184 34.1663 37.1368 34.847 37.0423C35.6068 36.932 37.1739 36.0973 37.4904 35.1838C37.8229 34.2703 37.8229 33.4985 37.7121 33.3253C37.6013 33.152 37.3638 33.0733 36.9681 32.8843Z" fill="#F9F9F9"/>
<defs>
<filter id="filter0_b_169_223" x="-24.6" y="-24.6" width="109.2" height="109.2" filterUnits="userSpaceOnUse" color-interpolation-filters="sRGB">
<feFlood flood-opacity="0" result="BackgroundImageFix"/>
<feGaussianBlur in="BackgroundImageFix" stdDeviation="12.3"/>
<feComposite in2="SourceAlpha" operator="in" result="effect1_backgroundBlur_169_223"/>
<feBlend mode="normal" in="SourceGraphic" in2="effect1_backgroundBlur_169_223" result="shape"/>
</filter>
</defs>
</svg>
